<svg width="1759" height="1759" viewBox="0 0 1759 1759" fill="none" xmlns="http://www.w3.org/2000/svg">
<path d="M828.12 1757.4C802.731 1755.93 763.728 1751.89 740.914 1748.21L699.703 1741.96L801.259 1589.82L902.815 1438.04L923.421 1435.83C984.87 1429.59 1053.31 1412.68 1101.51 1392.1L1115.49 1385.85L1113.66 1397.98C1112.55 1404.6 1107.4 1482.51 1101.88 1571.07L1091.58 1731.67L1076.86 1735.72C1047.42 1743.8 982.294 1753.72 946.602 1755.56C927.101 1756.66 902.816 1758.13 892.513 1758.87C882.578 1759.24 853.509 1758.87 828.12 1757.4Z" fill="white"/>
<path d="M585.639 1707.79C497.697 1676.91 403.868 1624.36 328.437 1563.72L293.849 1536.16L456.486 1455.68C546.267 1411.58 620.963 1375.2 622.802 1375.2C624.642 1375.2 635.313 1379.97 647.088 1385.85C677.628 1401.29 745.332 1421.87 789.487 1428.85L828.123 1435.1L821.867 1444.65C773.297 1519.62 634.945 1724.32 633.473 1723.96C632.369 1723.96 610.66 1716.61 585.639 1707.79Z" fill="white"/>
<path d="M1156.71 1698.23C1157.81 1689.41 1163.33 1607.82 1169.22 1517.05L1179.52 1351.68L1195.71 1340.65C1242.44 1308.31 1293.96 1259.43 1326.34 1216.44L1336.27 1202.84L1413.91 1357.92L1491.18 1513.01L1471.31 1530.65C1395.51 1598.64 1296.9 1660.01 1205.28 1696.02C1151.56 1716.97 1154.13 1716.97 1156.71 1698.23Z" fill="white"/>
<path d="M223.201 1465.23C166.904 1401.66 120.909 1331.83 84.8495 1256.49C64.9798 1214.97 42.9024 1158.74 45.1101 1156.17C45.8461 1155.8 127.165 1160.58 226.145 1166.82L406.076 1178.58L431.833 1213.5C460.166 1251.35 503.217 1295.82 535.229 1320.07L555.467 1335.14L400.925 1412.31C315.927 1454.58 246.015 1489.12 245.279 1489.12C244.911 1489.12 234.976 1478.46 223.201 1465.23Z" fill="white"/>
<path d="M325.86 1110.6C305.622 1108.76 229.823 1103.98 157.335 1099.2L25.9747 1090.75L22.2952 1077.89C-1.2541 994.099 -7.14142 846.363 9.41666 740.523L15.6719 699.363L167.638 800.793L319.973 901.856L322.18 926.479C328.068 984.544 344.994 1052.16 365.967 1100.67C370.383 1110.96 370.751 1114.27 367.439 1113.9C364.863 1113.54 346.098 1112.07 325.86 1110.6Z" fill="white"/>
<path d="M180.517 733.54C102.51 681.722 37.7499 637.99 35.9101 636.887C30.7587 632.11 62.4031 547.952 90.3678 491.357C120.54 430.719 152.185 380.739 194.132 328.187L221.729 294.009L302.311 456.444C346.834 546.115 382.894 620.717 382.894 622.555C382.894 624.392 378.11 635.05 372.223 646.81C366.336 658.202 356.769 683.192 350.514 701.935C340.211 732.07 335.427 753.018 325.125 812.185L322.181 827.62L180.517 733.54Z" fill="white"/>
<path d="M344.626 398.747L268.091 245.499L287.593 227.859C350.145 171.999 425.209 122.019 498.8 86.7389C542.587 65.7914 599.62 43.0063 601.828 45.5788C602.564 46.3138 597.781 127.532 591.525 226.757L579.751 406.465L559.881 420.43C512.782 453.137 463.108 500.545 434.408 540.235C429.624 546.482 424.841 551.995 423.737 551.995C422.265 551.995 386.941 482.905 344.626 398.747Z" fill="white"/>
<path d="M1113.29 373.022C1103.35 367.877 1078.7 357.955 1059.2 351.34C1027.55 340.682 1006.58 335.905 946.604 325.247L931.15 322.307L1025.35 180.819C1077.23 102.909 1121.02 38.2291 1122.12 36.3916C1126.9 31.2466 1211.17 62.8517 1267.83 90.7817C1328.91 120.917 1378.59 152.522 1431.2 194.417L1465.42 222.347L1302.79 302.462C1213.01 346.93 1137.94 382.945 1135.73 382.945C1133.53 382.577 1123.59 378.167 1113.29 373.022Z" fill="white"/>
<path d="M645.615 360.159C646.719 353.544 651.87 275.634 657.39 187.066L667.693 26.4687L680.571 22.7937C710.008 14.3412 781.391 4.05114 828.49 1.47863C888.835 -2.19638 962.059 1.11113 1018.36 9.93114L1059.57 16.1787L958.011 167.956L856.823 320.102L832.17 322.307C776.608 328.187 703.017 346.562 657.758 366.039L643.775 372.287L645.615 360.159Z" fill="white"/>
<path d="M760.402 960.254C747.223 960.254 734.964 958.379 723.624 954.63C712.284 950.88 702.4 945.673 693.972 939.007C685.544 932.342 679.031 924.426 674.434 915.261C669.837 905.957 667.538 895.681 667.538 884.433C667.538 873.324 669.914 863.187 674.664 854.022C679.414 844.718 685.927 836.733 694.202 830.067C702.63 823.263 712.514 817.986 723.854 814.237C735.347 810.487 747.683 808.613 760.862 808.613C769.596 808.613 778.025 809.585 786.146 811.529C794.268 813.334 801.853 815.903 808.902 819.236C816.105 822.43 822.388 826.318 827.751 830.901L801.087 861.104C798.022 858.326 794.498 855.827 790.514 853.605C786.683 851.383 782.162 849.578 776.952 848.189C771.895 846.801 766.148 846.106 759.712 846.106C753.889 846.106 748.219 846.939 742.703 848.606C737.186 850.272 732.282 852.772 727.992 856.105C723.854 859.437 720.559 863.534 718.108 868.394C715.656 873.116 714.43 878.601 714.43 884.85C714.43 890.96 715.656 896.376 718.108 901.097C720.713 905.818 724.314 909.776 728.911 912.97C733.508 916.164 738.795 918.663 744.771 920.469C750.748 922.274 757.261 923.177 764.31 923.177C770.746 923.177 776.492 922.343 781.549 920.677C786.759 919.011 791.356 916.997 795.341 914.636C799.478 912.276 803.156 909.845 806.374 907.346L827.751 938.591C823.614 942.201 818.02 945.673 810.971 949.005C803.922 952.338 796.03 955.046 787.296 957.129C778.561 959.212 769.596 960.254 760.402 960.254Z" fill="white"/>
<path d="M866.658 958.171V812.362H912.171V922.552H995.15V958.171H866.658Z" fill="white"/>
<path d="M1107.06 959.42C1091.89 959.42 1078.48 956.712 1066.84 951.297C1055.34 945.881 1046.3 938.452 1039.71 929.009C1033.28 919.566 1030.06 908.804 1030.06 896.723V812.362H1076.03V895.265C1076.03 900.819 1077.33 905.749 1079.94 910.054C1082.7 914.359 1086.37 917.761 1090.97 920.26C1095.72 922.621 1101.09 923.801 1107.06 923.801C1113.5 923.801 1119.09 922.621 1123.84 920.26C1128.59 917.761 1132.35 914.359 1135.1 910.054C1138.02 905.749 1139.47 900.819 1139.47 895.265V812.362H1184.07V896.723C1184.07 908.804 1180.77 919.566 1174.18 929.009C1167.75 938.452 1158.78 945.881 1147.29 951.297C1135.79 956.712 1122.39 959.42 1107.06 959.42Z" fill="white"/>
<path d="M1278.86 958.171V847.981H1223.7V812.362H1381.15V847.981H1324.38V958.171H1278.86Z" fill="white"/>
<path d="M1496.9 960.254C1483.72 960.254 1471.46 958.379 1460.12 954.63C1448.78 950.88 1438.9 945.673 1430.47 939.007C1422.04 932.342 1415.53 924.426 1410.93 915.261C1406.33 905.957 1404.03 895.681 1404.03 884.433C1404.03 873.324 1406.41 863.187 1411.16 854.022C1415.91 844.718 1422.42 836.733 1430.7 830.067C1439.13 823.263 1449.01 817.986 1460.35 814.237C1471.84 810.487 1484.18 808.613 1497.36 808.613C1506.09 808.613 1514.52 809.585 1522.64 811.529C1530.76 813.334 1538.35 815.903 1545.4 819.236C1552.6 822.43 1558.88 826.318 1564.25 830.901L1537.58 861.104C1534.52 858.326 1530.99 855.827 1527.01 853.605C1523.18 851.383 1518.66 849.578 1513.45 848.189C1508.39 846.801 1502.64 846.106 1496.21 846.106C1490.39 846.106 1484.72 846.939 1479.2 848.606C1473.68 850.272 1468.78 852.772 1464.49 856.105C1460.35 859.437 1457.06 863.534 1454.6 868.394C1452.15 873.116 1450.93 878.601 1450.93 884.85C1450.93 890.96 1452.15 896.376 1454.6 901.097C1457.21 905.818 1460.81 909.776 1465.41 912.97C1470 916.164 1475.29 918.663 1481.27 920.469C1487.24 922.274 1493.76 923.177 1500.81 923.177C1507.24 923.177 1512.99 922.343 1518.05 920.677C1523.26 919.011 1527.85 916.997 1531.84 914.636C1535.97 912.276 1539.65 909.845 1542.87 907.346L1564.25 938.591C1560.11 942.201 1554.52 945.673 1547.47 949.005C1540.42 952.338 1532.53 955.046 1523.79 957.129C1515.06 959.212 1506.09 960.254 1496.9 960.254Z" fill="white"/>
<path d="M1713.49 958.171V812.362H1759V958.171H1713.49ZM1603.15 958.171V812.362H1648.67V958.171H1603.15ZM1620.39 904.013L1620.62 867.769H1738.54V904.013H1620.39Z" fill="white"/>
</svg>
