<svg width="25" height="18" viewBox="0 0 25 18" fill="none" xmlns="http://www.w3.org/2000/svg">
<path fill-rule="evenodd" clip-rule="evenodd" d="M1.63636 0C0.732625 0 0 0.732633 0 1.63636V16.3636C0 17.2674 0.732625 18 1.63636 18H22.9091C23.8129 18 24.5455 17.2674 24.5455 16.3636V1.63636C24.5455 0.732633 23.8129 0 22.9091 0H1.63636ZM1.63636 1.63636H22.9091V3.1499C22.7739 3.14977 22.6371 3.18683 22.5146 3.26463L12.2727 9.76423L2.03092 3.26463C1.90834 3.18683 1.77153 3.14977 1.63636 3.1499V1.63636ZM1.63636 4.7585V16.3636H22.9091V4.7585L12.6673 11.2581C12.4264 11.4109 12.119 11.4109 11.8782 11.2581L1.63636 4.7585Z" fill="#ED1B24"/>
</svg>
