<svg width="609" height="612" viewBox="0 0 609 612" fill="none" xmlns="http://www.w3.org/2000/svg">
<path d="M286.633 610.544C277.845 610.034 264.345 608.633 256.449 607.36L242.185 605.195L277.336 552.468L312.487 499.869L319.619 499.105C340.888 496.94 364.576 491.081 381.26 483.949L386.1 481.784L385.463 485.987C385.081 488.279 383.298 515.279 381.388 545.973L377.822 601.628L372.727 603.029C362.539 605.831 339.996 609.27 327.642 609.907C320.892 610.289 312.487 610.798 308.921 611.053C305.482 611.18 295.42 611.053 286.633 610.544Z" fill="#D01820"/>
<path d="M202.703 593.35C172.264 582.652 139.788 564.44 113.679 543.425L101.708 533.874L158 505.982C189.076 490.699 214.93 478.09 215.566 478.09C216.203 478.09 219.897 479.746 223.972 481.784C234.543 487.133 257.977 494.265 273.26 496.685L286.633 498.85L284.468 502.161C267.656 528.142 219.769 599.081 219.26 598.954C218.878 598.954 211.364 596.407 202.703 593.35Z" fill="#D01820"/>
<path d="M400.364 590.039C400.746 586.982 402.657 558.709 404.694 527.251L408.26 469.939L413.864 466.119C430.039 454.911 447.869 437.972 459.077 423.071L462.515 418.359L489.388 472.105L516.133 525.85L509.256 531.963C483.02 555.525 448.888 576.793 417.176 589.275C398.581 596.534 399.473 596.534 400.364 590.039Z" fill="#D01820"/>
<path d="M77.2548 509.293C57.7689 487.26 41.849 463.062 29.3679 436.953C22.4905 422.562 14.849 403.076 15.6131 402.185C15.8678 402.057 44.0141 403.713 78.2737 405.878L140.552 409.953L149.467 422.052C159.274 435.17 174.175 450.581 185.255 458.987L192.26 464.208L138.769 490.954C109.349 505.6 85.151 517.572 84.8963 517.572C84.769 517.572 81.3303 513.878 77.2548 509.293Z" fill="#D01820"/>
<path d="M503.907 451.982L476.015 395.307L480.6 385.5C488.242 368.944 491.298 357.864 496.393 329.335L497.412 323.986L546.445 356.59C573.445 374.548 595.86 389.703 596.497 390.085C598.152 391.614 587.454 420.524 578.284 439.246C568.35 459.496 555.615 479.619 541.86 496.939C536.638 503.307 532.181 508.656 532.053 508.656C531.926 508.656 519.19 483.057 503.907 451.982Z" fill="#D01820"/>
<path d="M112.788 386.392C105.783 385.755 79.5473 384.1 54.4576 382.444L8.99048 379.515L7.71689 375.057C-0.434075 346.019 -2.47182 294.821 3.25933 258.142L5.42443 243.878L58.0236 279.029L110.75 314.052L111.514 322.585C113.552 342.708 119.411 366.142 126.67 382.953C128.198 386.519 128.326 387.666 127.179 387.538C126.288 387.411 119.793 386.902 112.788 386.392Z" fill="#D01820"/>
<path d="M549.883 332.647L498.176 297.878L497.412 290.873C495.246 269.604 489.388 246.043 482.256 229.359L480.218 224.646L484.93 225.283C487.605 225.538 514.605 227.448 544.916 229.359L599.935 232.797L601.209 237.382C609.997 270.241 611.525 320.038 604.902 359.392C604.138 363.722 603.119 367.288 602.61 367.288C602.101 367.288 578.412 351.623 549.883 332.647Z" fill="#D01820"/>
<path d="M62.4812 255.722C35.4811 237.764 13.0659 222.609 12.4291 222.227C10.6461 220.571 21.599 191.406 31.2782 171.792C41.7217 150.778 52.6745 133.457 67.1934 115.245L76.7453 103.401L104.637 159.693C120.047 190.769 132.529 216.623 132.529 217.26C132.529 217.896 130.873 221.59 128.835 225.665C126.797 229.613 123.486 238.274 121.321 244.769C117.755 255.212 116.099 262.472 112.533 282.977L111.514 288.326L62.4812 255.722Z" fill="#D01820"/>
<path d="M527.978 206.307L468.246 202.359L463.407 195.481C451.944 179.052 436.407 162.877 421.378 151.542L416.666 148.104L470.411 121.231L524.157 94.4856L530.27 101.363C553.832 127.599 575.1 161.731 587.582 193.443C594.204 210.51 594.332 210.637 590.766 210.509C589.11 210.382 560.964 208.472 527.978 206.307Z" fill="#D01820"/>
<path d="M119.283 139.698L92.7926 86.5894L99.5426 80.4762C121.194 61.1176 147.175 43.7968 172.647 31.5704C187.802 24.3109 207.543 16.4147 208.307 17.3062C208.562 17.5609 206.906 45.7072 204.741 80.0941L200.666 142.373L193.788 147.212C177.486 158.547 160.293 174.976 150.359 188.731C148.703 190.896 147.047 192.807 146.665 192.807C146.156 192.807 133.93 168.863 119.283 139.698Z" fill="#D01820"/>
<path d="M385.336 130.783C381.897 129 373.364 125.561 366.614 123.269C355.661 119.575 348.402 117.92 327.642 114.226L322.293 113.207L354.897 64.1742C372.855 37.1742 388.01 14.759 388.392 14.1222C390.048 12.3392 419.213 23.2921 438.827 32.9713C459.968 43.4148 477.162 54.3676 495.374 68.8865L507.218 78.5658L450.926 106.33C419.85 121.74 393.869 134.222 393.105 134.222C392.341 134.094 388.902 132.566 385.336 130.783Z" fill="#D01820"/>
<path d="M222.201 124.8C222.631 122.516 224.986 95.56 227.547 64.9139L232.291 9.34623L236.775 8.16741C247.024 5.45477 271.801 2.41323 288.118 1.86745C309.027 1.03686 334.342 2.72003 353.759 6.18897L367.974 8.65593L331.716 60.4982L295.582 112.471L287.035 113.054C267.765 114.683 242.164 120.51 226.359 126.926L221.475 128.988L222.201 124.8Z" fill="#D01820"/>
</svg>
