<svg width="215" height="215" viewBox="0 0 215 215" fill="none" xmlns="http://www.w3.org/2000/svg">
<path d="M101.22 214.804C98.1167 214.625 93.3493 214.131 90.5609 213.681L85.5237 212.918L97.9368 194.321L110.35 175.77L112.868 175.5C120.379 174.736 128.745 172.67 134.636 170.155L136.345 169.391L136.12 170.873C135.986 171.682 135.356 181.205 134.681 192.03L133.422 211.66L131.623 212.154C128.025 213.142 120.064 214.355 115.702 214.58C113.318 214.714 110.35 214.894 109.091 214.984C107.876 215.029 104.323 214.984 101.22 214.804Z" fill="#ED1B24"/>
<path d="M71.5818 208.74C60.8328 204.967 49.3642 198.543 40.1443 191.132L35.9167 187.763L55.7956 177.926C66.7694 172.535 75.8993 168.088 76.1242 168.088C76.3491 168.088 77.6534 168.672 79.0926 169.391C82.8255 171.278 91.1008 173.793 96.4978 174.646L101.22 175.41L100.456 176.578C94.5189 185.741 77.6084 210.761 77.4285 210.716C77.2936 210.716 74.64 209.818 71.5818 208.74Z" fill="#ED1B24"/>
<path d="M141.383 207.572C141.518 206.494 142.192 196.522 142.912 185.427L144.171 165.214L146.15 163.866C151.862 159.913 158.158 153.939 162.116 148.683L163.33 147.021L172.82 165.977L182.265 184.933L179.836 187.089C170.571 195.399 158.518 202.901 147.319 207.303C140.753 209.863 141.068 209.863 141.383 207.572Z" fill="#ED1B24"/>
<path d="M27.2816 179.093C20.4004 171.322 14.7786 162.788 10.371 153.579C7.9424 148.503 5.24391 141.631 5.51376 141.316C5.60371 141.271 15.5432 141.855 27.6414 142.619L49.6341 144.056L52.7824 148.324C56.2454 152.95 61.5075 158.386 65.4203 161.35L67.8939 163.192L49.0045 172.625C38.6153 177.791 30.07 182.013 29.9801 182.013C29.9351 182.013 28.7208 180.71 27.2816 179.093Z" fill="#ED1B24"/>
<path d="M39.8294 135.747C37.3558 135.522 28.0909 134.938 19.2309 134.354L3.17485 133.321L2.7251 131.749C-0.153287 121.507 -0.872885 103.45 1.15098 90.5131L1.91556 85.4822L20.4902 97.8798L39.1098 110.233L39.3796 113.242C40.0992 120.339 42.1681 128.604 44.7316 134.534C45.2713 135.792 45.3163 136.196 44.9115 136.151C44.5967 136.106 42.303 135.926 39.8294 135.747Z" fill="#ED1B24"/>
<path d="M22.0644 89.6594C12.5297 83.3258 4.6141 77.9804 4.38922 77.8457C3.75957 77.2617 7.62741 66.9752 11.0455 60.0577C14.7334 52.6461 18.6013 46.5371 23.7284 40.1136L27.1015 35.9362L36.951 55.7904C42.393 66.7506 46.8005 75.8692 46.8005 76.0938C46.8005 76.3184 46.2159 77.6211 45.4963 79.0585C44.7767 80.451 43.6073 83.5055 42.8427 85.7963C41.5835 89.4797 40.9988 92.0401 39.7395 99.2721L39.3797 101.159L22.0644 89.6594Z" fill="#ED1B24"/>
<path d="M42.1231 48.7383L32.7684 30.007L35.152 27.8509C42.7978 21.0232 51.9726 14.9142 60.9676 10.6019C66.3196 8.04156 73.2907 5.25657 73.5606 5.57101C73.6505 5.66085 73.0658 15.588 72.3013 27.7161L70.8621 49.6816L68.4334 51.3885C62.6767 55.3863 56.605 61.1808 53.097 66.0321C52.5123 66.7957 51.9277 67.4695 51.7927 67.4695C51.6128 67.4695 47.2952 59.0247 42.1231 48.7383Z" fill="#ED1B24"/>
<path d="M136.076 45.5938C134.861 44.965 131.848 43.7522 129.464 42.9436C125.597 41.641 123.033 41.057 115.702 39.7544L113.813 39.395L125.327 22.1012C131.668 12.5783 137.02 4.67255 137.155 4.44796C137.74 3.81909 148.039 7.68213 154.965 11.096C162.431 14.7793 168.503 18.6424 174.934 23.7632L179.117 27.177L159.238 36.9694C148.264 42.4046 139.089 46.8067 138.819 46.8067C138.549 46.7617 137.335 46.2227 136.076 45.5938Z" fill="#ED1B24"/>
<path d="M78.9126 44.0218C79.0475 43.2132 79.6772 33.6904 80.3518 22.8649L81.6111 3.23523L83.1852 2.78604C86.7832 1.7529 95.5083 0.495164 101.265 0.180731C108.641 -0.26846 117.591 0.135811 124.472 1.21387L129.509 1.97749L117.096 20.5291L104.728 39.1256L101.715 39.3951C94.9237 40.1138 85.9287 42.3597 80.3968 44.7405L78.6877 45.5041L78.9126 44.0218Z" fill="#ED1B24"/>
<path d="M92.9428 117.37C91.332 117.37 89.8336 117.141 88.4475 116.683C87.0615 116.224 85.8534 115.588 84.8232 114.773C83.793 113.959 82.997 112.991 82.4351 111.871C81.8732 110.734 81.5922 109.478 81.5922 108.103C81.5922 106.745 81.8826 105.506 82.4632 104.386C83.0438 103.248 83.8399 102.272 84.8513 101.458C85.8815 100.626 87.0896 99.981 88.4756 99.5227C89.8804 99.0645 91.3882 98.8353 92.999 98.8353C94.0666 98.8353 95.0968 98.9541 96.0895 99.1918C97.0822 99.4124 98.0094 99.7264 98.871 100.134C99.7513 100.524 100.519 100.999 101.175 101.56L97.9157 105.251C97.5411 104.912 97.1103 104.606 96.6233 104.335C96.1551 104.063 95.6025 103.842 94.9657 103.673C94.3476 103.503 93.6452 103.418 92.8585 103.418C92.1468 103.418 91.4538 103.52 90.7795 103.724C90.1052 103.927 89.5058 104.233 88.9813 104.64C88.4756 105.048 88.0729 105.548 87.7732 106.142C87.4736 106.719 87.3237 107.39 87.3237 108.154C87.3237 108.9 87.4736 109.562 87.7732 110.14C88.0917 110.717 88.5318 111.2 89.0937 111.591C89.6556 111.981 90.3018 112.287 91.0323 112.507C91.7628 112.728 92.5588 112.838 93.4204 112.838C94.2071 112.838 94.9095 112.736 95.5276 112.533C96.1644 112.329 96.7263 112.083 97.2133 111.794C97.719 111.506 98.1686 111.209 98.5619 110.903L101.175 114.722C100.669 115.164 99.9854 115.588 99.1238 115.995C98.2622 116.403 97.2976 116.734 96.23 116.988C95.1624 117.243 94.0666 117.37 92.9428 117.37Z" fill="#ED1B24"/>
<path d="M105.93 117.116V99.2936H111.493V112.762H121.636V117.116H105.93Z" fill="#ED1B24"/>
<path d="M135.315 117.268C133.46 117.268 131.821 116.937 130.398 116.275C128.993 115.613 127.888 114.705 127.083 113.551C126.296 112.397 125.903 111.082 125.903 109.605V99.2936H131.522V109.427C131.522 110.106 131.681 110.708 131.999 111.234C132.336 111.761 132.786 112.176 133.348 112.482C133.929 112.77 134.584 112.915 135.315 112.915C136.101 112.915 136.785 112.77 137.366 112.482C137.946 112.176 138.405 111.761 138.742 111.234C139.098 110.708 139.276 110.106 139.276 109.427V99.2936H144.727V109.605C144.727 111.082 144.324 112.397 143.518 113.551C142.732 114.705 141.636 115.613 140.231 116.275C138.826 116.937 137.188 117.268 135.315 117.268Z" fill="#ED1B24"/>
<path d="M156.314 117.116V103.647H149.571V99.2936H168.816V103.647H161.876V117.116H156.314Z" fill="#ED1B24"/>
<path d="M182.964 117.37C181.353 117.37 179.854 117.141 178.468 116.683C177.082 116.224 175.874 115.588 174.844 114.773C173.814 113.959 173.018 112.991 172.456 111.871C171.894 110.734 171.613 109.478 171.613 108.103C171.613 106.745 171.903 105.506 172.484 104.386C173.065 103.248 173.861 102.272 174.872 101.458C175.902 100.626 177.11 99.981 178.496 99.5227C179.901 99.0645 181.409 98.8353 183.02 98.8353C184.087 98.8353 185.118 98.9541 186.11 99.1918C187.103 99.4124 188.03 99.7264 188.892 100.134C189.772 100.524 190.54 100.999 191.196 101.56L187.937 105.251C187.562 104.912 187.131 104.606 186.644 104.335C186.176 104.063 185.623 103.842 184.987 103.673C184.368 103.503 183.666 103.418 182.879 103.418C182.168 103.418 181.475 103.52 180.8 103.724C180.126 103.927 179.527 104.233 179.002 104.64C178.496 105.048 178.094 105.548 177.794 106.142C177.494 106.719 177.345 107.39 177.345 108.154C177.345 108.9 177.494 109.562 177.794 110.14C178.113 110.717 178.553 111.2 179.115 111.591C179.676 111.981 180.323 112.287 181.053 112.507C181.784 112.728 182.58 112.838 183.441 112.838C184.228 112.838 184.93 112.736 185.548 112.533C186.185 112.329 186.747 112.083 187.234 111.794C187.74 111.506 188.189 111.209 188.583 110.903L191.196 114.722C190.69 115.164 190.006 115.588 189.145 115.995C188.283 116.403 187.318 116.734 186.251 116.988C185.183 117.243 184.087 117.37 182.964 117.37Z" fill="#ED1B24"/>
<path d="M209.437 117.116V99.2936H215V117.116H209.437ZM195.951 117.116V99.2936H201.514V117.116H195.951ZM198.058 110.496L198.086 106.066H212.5V110.496H198.058Z" fill="#ED1B24"/>
</svg>
